<?xml version="1.0" encoding="UTF-8"?>
<svg id="_レイヤー_2" data-name="レイヤー 2" xmlns="http://www.w3.org/2000/svg" viewBox="0 0 236.46 75.08">
  <defs>
    <style>
      .cls-1 {
        fill: none;
        stroke: #3f3f46;
        stroke-miterlimit: 10;
        stroke-width: 2px;
      }
    </style>
  </defs>
  <g id="_グラフィック" data-name="グラフィック">
    <g>
      <path class="cls-1" d="M63.08,68.28c.2.46.31.79.34.98.03.2.05.52.05.98,0,1.51-.92,2.26-2.75,2.26h-9.14c-1.44,0-2.42-.21-2.95-.64-.52-.42-1.08-1.55-1.67-3.39l-3.34-10.71h-23.48l-3.24,10.9c-.52,1.7-1.03,2.77-1.52,3.19-.49.43-1.52.64-3.09.64H3.75c-1.83,0-2.75-.75-2.75-2.26,0-.98.13-1.64.39-1.96L22.22,5.91c.39-1.31.9-2.19,1.52-2.65.62-.46,1.59-.69,2.9-.69h11.39c1.31,0,2.26.21,2.85.64.59.43,1.11,1.33,1.57,2.7l20.63,62.37ZM23.89,45.2h15.91l-8.05-26.42-7.86,26.42Z"/>
      <path class="cls-1" d="M87.54,49.72v19.06c0,1.51-.28,2.5-.83,3-.56.49-1.69.74-3.39.74h-7.47c-1.7,0-2.83-.25-3.39-.74-.56-.49-.83-1.49-.83-3V6.3c0-1.51.28-2.5.83-3,.56-.49,1.69-.74,3.39-.74h19.94c8.64,0,14.9,1.75,18.76,5.25,3.86,3.5,5.8,9.15,5.8,16.94v3.44c0,14.34-8.19,21.51-24.56,21.51h-8.25ZM87.54,36.07h6.97c3.34,0,5.78-.67,7.32-2.01,1.54-1.34,2.31-3.45,2.31-6.34v-2.46c0-3.14-.75-5.43-2.26-6.88-1.51-1.44-3.96-2.16-7.37-2.16h-6.97v19.84Z"/>
      <path class="cls-1" d="M145.88,49.72v19.06c0,1.51-.28,2.5-.83,3-.56.49-1.69.74-3.39.74h-7.46c-1.7,0-2.83-.25-3.39-.74-.56-.49-.83-1.49-.83-3V6.3c0-1.51.28-2.5.83-3,.56-.49,1.68-.74,3.39-.74h19.94c8.64,0,14.9,1.75,18.76,5.25,3.86,3.5,5.79,9.15,5.79,16.94v3.44c0,14.34-8.19,21.51-24.56,21.51h-8.25ZM145.88,36.07h6.97c3.34,0,5.78-.67,7.32-2.01,1.54-1.34,2.31-3.45,2.31-6.34v-2.46c0-3.14-.75-5.43-2.26-6.88-1.51-1.44-3.96-2.16-7.37-2.16h-6.97v19.84Z"/>
      <path class="cls-1" d="M200.4,54.53c.65,2.23,1.72,3.85,3.19,4.86,1.47,1.02,3.58,1.52,6.33,1.52,5.96,0,8.94-2.32,8.94-6.97,0-2.03-.67-3.7-2.01-5.01-1.34-1.31-3.55-2.42-6.63-3.34l-8.15-2.46c-11.39-3.4-17.09-10.05-17.09-19.94v-1.57c0-4.19,1.01-7.82,3.04-10.9,2.03-3.08,4.88-5.47,8.55-7.17,3.67-1.7,7.96-2.55,12.87-2.55,4.06,0,7.55.44,10.46,1.33,2.91.88,5.58,2.31,8.01,4.27,1.9,1.51,3.44,3.49,4.62,5.94s1.77,4.93,1.77,7.42c0,1.31-.28,2.21-.83,2.7-.56.49-1.65.74-3.29.74h-7.76c-1.44,0-2.42-.23-2.95-.69-.53-.46-.95-1.34-1.28-2.65-.98-3.93-3.93-5.89-8.84-5.89-5.37,0-8.05,2.29-8.05,6.88,0,2.29.67,4.06,2.01,5.3,1.34,1.24,3.85,2.42,7.51,3.54l8.15,2.46c11,3.21,16.5,9.5,16.5,18.86v1.77c0,6.61-2.28,11.79-6.83,15.52-4.55,3.73-10.85,5.6-18.91,5.6-8.58,0-15.06-1.96-19.45-5.89-1.83-1.7-3.29-3.75-4.37-6.14-1.08-2.39-1.62-4.83-1.62-7.32,0-1.31.28-2.21.83-2.7.56-.49,1.65-.74,3.29-.74h7.56c1.51,0,2.54.2,3.09.59.56.39,1,1.28,1.33,2.65Z"/>
    </g>
  </g>
</svg>