<?xml version="1.0" encoding="UTF-8"?>
<svg id="_レイヤー_2" data-name="レイヤー 2" xmlns="http://www.w3.org/2000/svg" viewBox="0 0 457.17 75.08">
  <defs>
    <style>
      .cls-1 {
        fill: none;
        stroke: #3f3f46;
        stroke-miterlimit: 10;
        stroke-width: 2px;
      }
    </style>
  </defs>
  <g id="_グラフィック" data-name="グラフィック">
    <g>
      <path class="cls-1" d="M1,31.25c0-7.79,1.41-14.08,4.22-18.86C9.68,4.8,17.57,1,28.9,1c7.99,0,14.27,1.87,18.86,5.6,4.58,3.73,6.88,8.84,6.88,15.32,0,1.25-.29,2.11-.88,2.6s-1.67.74-3.24.74h-7.96c-1.44,0-2.44-.25-3-.74-.56-.49-1-1.55-1.33-3.19-.85-4.39-4.09-6.58-9.72-6.58-4.13,0-7.02,1.11-8.69,3.34-1.67,2.23-2.5,6.12-2.5,11.69v15.52c0,5.44.82,9.3,2.46,11.59,1.64,2.29,4.45,3.44,8.45,3.44s6.84-.83,8.55-2.5c1.7-1.67,2.55-4.47,2.55-8.4v-.39h-6.09c-1.7,0-2.83-.25-3.39-.74-.56-.49-.83-1.49-.83-3v-6.58c0-1.51.28-2.5.83-3,.56-.49,1.69-.74,3.39-.74h17.19c1.7,0,2.83.25,3.39.74.56.49.83,1.49.83,3v10.9c0,7.99-2.24,14.06-6.73,18.22-4.49,4.16-11.12,6.24-19.89,6.24-5.76,0-10.72-1.15-14.88-3.44-4.16-2.29-7.32-5.6-9.48-9.92-1.77-3.54-2.65-8.84-2.65-15.91v-13.55Z"/>
      <path class="cls-1" d="M82.04,48.25v20.53c0,1.51-.28,2.5-.83,3-.56.49-1.69.74-3.39.74h-7.37c-1.7,0-2.83-.25-3.39-.74-.56-.49-.83-1.49-.83-3V6.3c0-1.51.28-2.5.83-3,.56-.49,1.69-.74,3.39-.74h22.89c7.79,0,13.51,1.72,17.14,5.16,3.63,3.44,5.45,8.86,5.45,16.26v2.85c0,9.17-3.47,15.46-10.41,18.86l12.77,23.08c.33.52.49,1.08.49,1.67,0,1.38-1.11,2.06-3.34,2.06h-9.53c-1.44,0-2.52-.25-3.24-.74-.72-.49-1.44-1.49-2.16-3l-10.02-20.53h-8.45ZM82.04,34.79h8.64c6.02,0,9.04-2.72,9.04-8.15v-2.36c0-5.37-3.01-8.05-9.04-8.05h-8.64v18.56Z"/>
      <path class="cls-1" d="M184.78,68.29c.2.46.31.79.34.98.03.2.05.52.05.98,0,1.51-.92,2.26-2.75,2.26h-9.14c-1.44,0-2.42-.21-2.95-.64-.52-.42-1.08-1.55-1.67-3.39l-3.34-10.71h-23.48l-3.24,10.9c-.52,1.7-1.03,2.77-1.52,3.19-.49.43-1.52.64-3.09.64h-8.55c-1.83,0-2.75-.75-2.75-2.26,0-.98.13-1.64.39-1.96l20.82-62.37c.39-1.31.9-2.19,1.52-2.65.62-.46,1.59-.69,2.9-.69h11.39c1.31,0,2.26.21,2.85.64.59.43,1.11,1.33,1.57,2.7l20.63,62.37ZM145.59,45.2h15.91l-8.05-26.42-7.86,26.42Z"/>
      <path class="cls-1" d="M209.24,49.72v19.06c0,1.51-.28,2.5-.83,3-.56.49-1.69.74-3.39.74h-7.47c-1.7,0-2.83-.25-3.39-.74-.56-.49-.83-1.49-.83-3V6.3c0-1.51.28-2.5.83-3,.56-.49,1.69-.74,3.39-.74h19.94c8.64,0,14.9,1.75,18.76,5.25,3.86,3.5,5.8,9.15,5.8,16.94v3.44c0,14.34-8.19,21.51-24.56,21.51h-8.25ZM209.24,36.07h6.97c3.34,0,5.78-.67,7.32-2.01,1.54-1.34,2.31-3.45,2.31-6.33v-2.46c0-3.14-.75-5.43-2.26-6.88-1.51-1.44-3.96-2.16-7.37-2.16h-6.97v19.84Z"/>
      <path class="cls-1" d="M305.5,68.78c0,1.51-.28,2.5-.83,3-.56.49-1.69.74-3.39.74h-7.66c-1.7,0-2.83-.25-3.39-.74-.56-.49-.83-1.49-.83-3v-25.54h-21.61v25.54c0,1.51-.28,2.5-.83,3-.56.49-1.69.74-3.39.74h-7.66c-1.7,0-2.83-.25-3.39-.74-.56-.49-.83-1.49-.83-3V6.3c0-1.51.28-2.5.83-3,.56-.49,1.69-.74,3.39-.74h7.66c1.7,0,2.83.25,3.39.74.56.49.83,1.49.83,3v22.98h21.61V6.3c0-1.51.28-2.5.83-3,.56-.49,1.69-.74,3.39-.74h7.66c1.7,0,2.83.25,3.39.74.56.49.83,1.49.83,3v62.47Z"/>
      <path class="cls-1" d="M334.96,68.78c0,1.51-.28,2.5-.83,3-.56.49-1.69.74-3.39.74h-7.66c-1.7,0-2.83-.25-3.39-.74-.56-.49-.83-1.49-.83-3V6.3c0-1.51.28-2.5.83-3,.56-.49,1.69-.74,3.39-.74h7.66c1.7,0,2.83.25,3.39.74.56.49.83,1.49.83,3v62.47Z"/>
      <path class="cls-1" d="M383.19,50.8c.2-1.31.61-2.18,1.23-2.6.62-.42,1.69-.64,3.19-.64h7.66c1.7,0,2.81.25,3.34.74.52.49.79,1.59.79,3.29,0,3.73-.65,7.06-1.96,9.97-1.31,2.91-3.21,5.32-5.7,7.22-4.52,3.54-10.67,5.3-18.46,5.3-10.74,0-18.24-3.5-22.5-10.51-2.82-4.65-4.22-10.9-4.22-18.76v-13.55c0-7.79,1.41-14.08,4.22-18.86,4.45-7.6,12.28-11.39,23.48-11.39,7.4,0,13.23,1.64,17.48,4.91,5.11,3.8,7.66,9.5,7.66,17.09,0,1.77-.26,2.91-.79,3.44s-1.67.79-3.44.79h-6.97c-1.83,0-3.06-.31-3.68-.93-.62-.62-1.1-1.88-1.42-3.78-.85-5.17-4-7.76-9.43-7.76-3.87,0-6.63,1.16-8.3,3.49-1.67,2.33-2.5,6.21-2.5,11.64v15.32c0,5.44.82,9.32,2.46,11.64,1.64,2.33,4.35,3.49,8.15,3.49,3.08,0,5.35-.7,6.83-2.11,1.47-1.41,2.44-3.88,2.9-7.42Z"/>
      <path class="cls-1" d="M421.11,54.53c.65,2.23,1.72,3.85,3.19,4.86,1.47,1.02,3.59,1.52,6.34,1.52,5.96,0,8.94-2.32,8.94-6.97,0-2.03-.67-3.7-2.01-5.01-1.34-1.31-3.55-2.42-6.63-3.34l-8.15-2.46c-11.39-3.4-17.09-10.05-17.09-19.94v-1.57c0-4.19,1.01-7.82,3.04-10.9,2.03-3.08,4.88-5.47,8.55-7.17,3.67-1.7,7.96-2.55,12.87-2.55,4.06,0,7.55.44,10.46,1.33,2.91.88,5.58,2.31,8.01,4.27,1.9,1.51,3.44,3.49,4.62,5.94,1.18,2.46,1.77,4.93,1.77,7.42,0,1.31-.28,2.21-.83,2.7-.56.49-1.66.74-3.29.74h-7.76c-1.44,0-2.42-.23-2.95-.69-.52-.46-.95-1.34-1.28-2.65-.98-3.93-3.93-5.89-8.84-5.89-5.37,0-8.05,2.29-8.05,6.88,0,2.29.67,4.06,2.01,5.3,1.34,1.24,3.85,2.42,7.51,3.54l8.15,2.46c11,3.21,16.5,9.5,16.5,18.86v1.77c0,6.61-2.28,11.79-6.83,15.52-4.55,3.73-10.85,5.6-18.91,5.6-8.58,0-15.06-1.96-19.45-5.89-1.83-1.7-3.29-3.75-4.37-6.14-1.08-2.39-1.62-4.83-1.62-7.32,0-1.31.28-2.21.83-2.7.56-.49,1.65-.74,3.29-.74h7.56c1.51,0,2.54.2,3.09.59.55.39,1,1.28,1.33,2.65Z"/>
    </g>
  </g>
</svg>