<?xml version="1.0" encoding="UTF-8"?>
<svg id="_" data-name="ｓ" xmlns="http://www.w3.org/2000/svg" xmlns:xlink="http://www.w3.org/1999/xlink" viewBox="0 0 1920 1080">
  <defs>
    <style>
      .cls-1 {
        fill: #0071bc;
      }

      .cls-2 {
        fill: none;
      }

      .cls-3 {
        clip-path: url(#clippath);
      }
    </style>
    <clipPath id="clippath">
      <rect class="cls-2" width="1920" height="102.14" transform="translate(1920 102.14) rotate(180)"/>
    </clipPath>
  </defs>
  <g class="cls-3">
    <path class="cls-1" d="M-205.56,66.36c43.73,0,43.73,20,87.46,20s43.73-20,87.46-20c43.73,0,43.73,20,87.46,20,43.73,0,43.73-20,87.46-20,43.73,0,43.73,20,87.46,20,43.73,0,43.73-20,87.46-20,43.73,0,43.73,20,87.46,20,43.73,0,43.73-20,87.46-20,43.73,0,43.73,20,87.46,20s43.73-20,87.46-20c43.73,0,43.73,20,87.46,20,43.73,0,43.73-20,87.46-20,43.73,0,43.73,20,87.46,20s43.73-20,87.46-20c43.73,0,43.73,20,87.46,20s43.73-20,87.46-20c43.73,0,43.73,20,87.46,20,43.73,0,43.73-20,87.46-20,43.73,0,43.73,20,87.46,20,43.73,0,43.73-20,87.46-20,43.73,0,43.73,20,87.46,20,43.73,0,43.73-20,87.46-20,43.73,0,43.73,20,87.46,20,43.73,0,43.73-20,87.46-20,43.73,0,43.73,20,87.46,20,43.73,0,43.73-20,87.46-20,43.73,0,43.73,20,87.46,20,43.73,0,43.73-20,87.46-20,43.73,0,43.73,20,87.47,20s43.73-20,87.47-20v-248.36H-205.56V66.36Z"/>
  </g>
</svg>