<?xml version="1.0" encoding="UTF-8"?>
<svg id="_レイヤー_2" data-name="レイヤー 2" xmlns="http://www.w3.org/2000/svg" xmlns:xlink="http://www.w3.org/1999/xlink" viewBox="0 0 1920 102.14">
  <defs>
    <style>
      .cls-1 {
        fill: #0071bc;
      }

      .cls-2 {
        fill: none;
      }

      .cls-3 {
        clip-path: url(#clippath);
      }
    </style>
    <clipPath id="clippath">
      <rect class="cls-2" x="0" y="0" width="1920" height="102.14"/>
    </clipPath>
  </defs>
  <g id="_" data-name="ｓ">
    <g class="cls-3">
      <path class="cls-1" d="M2125.56,35.78c-43.73,0-43.73-20-87.46-20-43.73,0-43.73,20-87.46,20-43.73,0-43.73-20-87.46-20-43.73,0-43.73,20-87.46,20-43.73,0-43.73-20-87.46-20-43.73,0-43.73,20-87.46,20-43.73,0-43.73-20-87.46-20-43.73,0-43.73,20-87.46,20-43.73,0-43.73-20-87.46-20s-43.73,20-87.46,20c-43.73,0-43.73-20-87.46-20-43.73,0-43.73,20-87.46,20-43.73,0-43.73-20-87.46-20-43.73,0-43.73,20-87.46,20-43.73,0-43.73-20-87.46-20-43.73,0-43.73,20-87.46,20-43.73,0-43.73-20-87.46-20-43.73,0-43.73,20-87.46,20-43.73,0-43.73-20-87.46-20s-43.73,20-87.46,20c-43.73,0-43.73-20-87.46-20-43.73,0-43.73,20-87.46,20-43.73,0-43.73-20-87.46-20-43.73,0-43.73,20-87.46,20-43.73,0-43.73-20-87.46-20-43.73,0-43.73,20-87.46,20-43.73,0-43.73-20-87.46-20-43.73,0-43.73,20-87.46,20-43.73,0-43.73-20-87.47-20s-43.73,20-87.47,20v248.36s2623.82,0,2623.82,0V35.78Z"/>
    </g>
  </g>
</svg>