<?xml version="1.0" encoding="UTF-8"?>
<svg id="_レイヤー_2" data-name="レイヤー 2" xmlns="http://www.w3.org/2000/svg" viewBox="0 0 1920 95.44">
  <defs>
    <style>
      .cls-1 {
        fill: #0071bc;
      }
    </style>
  </defs>
  <g id="wave">
    <path class="cls-1" d="M0,95.44c43.64,0,43.64-20,87.28-20s43.64,20,87.28,20,43.64-20,87.28-20,43.64,20,87.27,20,43.64-20,87.27-20,43.64,20,87.27,20,43.64-20,87.27-20,43.64,20,87.27,20,43.64-20,87.27-20,43.64,20,87.27,20,43.63-20,87.27-20,43.64,20,87.27,20,43.64-20,87.27-20,43.64,20,87.27,20,43.64-20,87.27-20,43.64,20,87.27,20,43.64-20,87.27-20,43.64,20,87.27,20,43.64-20,87.27-20,43.63,20,87.27,20,43.63-20,87.27-20,43.64,20,87.27,20V0H0v95.44Z"/>
  </g>
</svg>