<?xml version="1.0" encoding="UTF-8"?>
<svg id="_レイヤー_2" data-name="レイヤー 2" xmlns="http://www.w3.org/2000/svg" viewBox="0 0 1920 95.44">
  <defs>
    <style>
      .cls-1 {
        fill: #0071bc;
      }
    </style>
  </defs>
  <g id="wave">
    <path class="cls-1" d="M1920,0c-43.64,0-43.64,20-87.28,20S1789.08,0,1745.44,0s-43.64,20-87.28,20S1614.53,0,1570.89,0s-43.64,20-87.27,20S1439.98,0,1396.34,0s-43.64,20-87.27,20S1265.43,0,1221.8,0s-43.64,20-87.27,20S1090.89,0,1047.25,0s-43.63,20-87.27,20S916.35,0,872.71,0s-43.64,20-87.27,20S741.8,0,698.17,0s-43.64,20-87.27,20S567.26,0,523.62,0s-43.64,20-87.27,20S392.72,0,349.08,0s-43.64,20-87.27,20S218.18,0,174.54,0s-43.63,20-87.27,20S43.64,0,0,0v95.44h1920V0Z"/>
  </g>
</svg>