<?xml version="1.0" encoding="UTF-8"?>
<svg id="_書きだしよう" data-name="書きだしよう" xmlns="http://www.w3.org/2000/svg" xmlns:xlink="http://www.w3.org/1999/xlink" viewBox="0 0 1920 1080">
  <defs>
    <style>
      .cls-1 {
        fill: #577c3a;
      }

      .cls-2 {
        fill: #0071bc;
      }

      .cls-3 {
        fill: #b7c678;
      }

      .cls-4 {
        filter: url(#drop-shadow-1);
        opacity: .9;
      }

      .cls-5 {
        fill: #338dc9;
      }

      .cls-6 {
        fill: #fff23f;
      }

      .cls-7 {
        stroke: #717071;
        stroke-linecap: round;
        stroke-miterlimit: 10;
        stroke-width: 2.96px;
      }

      .cls-7, .cls-8 {
        fill: none;
      }

      .cls-9 {
        fill: #fff;
      }

      .cls-10 {
        fill: #e9f7fd;
      }

      .cls-11 {
        fill: url(#_名称未設定グラデーション_11);
      }

      .cls-12 {
        fill: #336d3c;
      }

      .cls-13 {
        clip-path: url(#clippath-1);
      }

      .cls-14 {
        fill: #b1d2a2;
      }

      .cls-15 {
        fill: #fde9d2;
      }

      .cls-16 {
        fill: #e8d7aa;
      }

      .cls-17 {
        fill: #fffeff;
      }

      .cls-18 {
        fill: #888;
      }

      .cls-19 {
        fill: #f7931e;
      }

      .cls-20 {
        fill: #615331;
      }

      .cls-21 {
        fill: #7a5f3e;
      }

      .cls-22 {
        fill: #fbdfc1;
      }

      .cls-23 {
        fill: #619f4a;
      }

      .cls-24 {
        fill: #7e6a47;
      }

      .cls-25 {
        clip-path: url(#clippath);
      }

      .cls-26 {
        fill: #fbb03b;
      }

      .cls-27 {
        fill: #418848;
      }

      .cls-28 {
        fill: #717071;
      }
    </style>
    <linearGradient id="_名称未設定グラデーション_11" data-name="名称未設定グラデーション 11" x1="960" y1="1080" x2="960" y2=".53" gradientUnits="userSpaceOnUse">
      <stop offset="0" stop-color="#8fd6f3" stop-opacity=".7"/>
      <stop offset="1" stop-color="#8fd6f3"/>
    </linearGradient>
    <clipPath id="clippath">
      <rect class="cls-8" y=".53" width="1920" height="1079.47"/>
    </clipPath>
    <clipPath id="clippath-1">
      <ellipse class="cls-8" cx="1578.27" cy="911.96" rx="83.79" ry="80.42" transform="translate(-80.94 157.21) rotate(-5.56)"/>
    </clipPath>
    <filter id="drop-shadow-1" x="316.42" y="430.22" width="1299.66" height="171.55" filterUnits="userSpaceOnUse">
      <feOffset dx="11" dy="11"/>
      <feGaussianBlur result="blur" stdDeviation="0"/>
      <feFlood flood-color="#000" flood-opacity=".25"/>
      <feComposite in2="blur" operator="in"/>
      <feComposite in="SourceGraphic"/>
    </filter>
  </defs>
  <rect class="cls-9" y=".53" width="1920" height="1079.47"/>
  <rect class="cls-11" y=".53" width="1920" height="1079.47"/>
  <g>
    <path class="cls-17" d="M1541.03,955.32c.48.56,10.4,5.29,1.68,11.23-7.9,5.38-151.78,14.5-172.87,15.71-210.14,12.05-507.83,12.4-718.43,2.24-46.07-2.21-158.73-8.39-197.57-13.46-13.91-1.82-48.09-2.45-25.25-22.46,1.56-.36,2.91-1,4.49-1.12-3.74,2.53-10.01,7.69-3.93,11.23,18.33,10.66,374.35,21.72,423.19,22.45,149.04,2.27,319.45.83,468.11-5.6,35.98-1.56,188.04-9.52,211.04-14.6,3.3-.73,7.85-2.13,9.54-5.61"/>
    <path class="cls-22" d="M1541.03,955.32c-1.69,3.48-6.24,4.88-9.54,5.61-23,5.07-175.05,13.04-211.04,14.6-148.66,6.43-319.07,7.87-468.11,5.6-48.84-.73-404.87-11.79-423.19-22.45-6.08-3.54.19-8.7,3.93-11.23,7.2-4.87,40.09-13.9,50.52-16.83,34.63-9.79,70.3-16.2,105.51-23.58-4.75,1.98-23.57,8.7-23.57,14.04,0,10,40.91-2.31,29.74,7.3l94.3-1.12-10.67,7.3c2.14,5.42,103.23,5.85,116.19,6.16.85.02.27,2.22,1.12,2.25,21.26.54,42.76-1.3,63.98-2.25.77,3.44-4.53,1.26-8.98,3.37l1.12,2.25c168.94,9.67,338.66-3.76,507.39-14.59,7.45-.71,57.58-3.98,34.23-19.09,30.07,5.22,60.34,11.24,89.8,19.09,16.35,4.35,32.24,10.39,48.27,15.71,3.61,2.66,6.01,4.39,8.98,7.86"/>
    <path class="cls-12" d="M1396.22,894.7c1.37,4.88-2.91,12.4-4.49,16.84-4.64-2.13-86.31-18.71-99.91-21.32,2.81-2.9,10.93,2.12,15.16,1.11,3.63-.86,6.22-12.49,10.11-13.46,6.71-1.68,8.06,9.52,14.59-4.49,7.15,3.07,10.93-6.9,17.96,0-.31-3.79.56-3.2.56-3.37,2.57-3.36,11.15-1.19,12.91,0,9.87,6.65-.27,14.19,13.46,10.11,3.98,6.66,16.88,4.76,19.65,14.59"/>
    <path class="cls-3" d="M1393.97,912.66c23.35,15.11-26.79,18.38-34.24,19.09-168.73,10.83-338.45,24.26-507.39,14.59l-1.12-2.25c4.45-2.11,9.76.07,8.98-3.37-21.22.94-42.72,2.79-63.98,2.25-.86-.02-.28-2.22-1.12-2.25-12.95-.32-114.05-.74-116.19-6.16l10.67-7.3-94.29,1.12c11.16-9.61-29.76,2.7-29.74-7.3,0-5.34,18.82-12.05,23.57-14.04,5.29-2.2,11.5-4.89,16.84-6.74,21.27-7.33,46.28-12.28,68.47-16.83,37.96-7.81,55.39-9.17,93.17-12.35,8.95-.75,18.12-.75,26.95-2.25,44.54-1.56,88.95-5.36,133.58-6.74,25.45-.78,50.83-1.42,76.33-1.12,6.34.07,12.74-.17,19.08,0,34.07.91,68.23,3.95,102.15,6.74,7.05.58,14.28,1.58,21.33,2.25,11.77,1.11,24.21.94,35.92,2.25,2.38.26,7.69,1.96,10.11,2.25,3.37.4,6.71.69,10.09,1.12,29.97,3.8,59.03,8.88,88.68,14.6,13.6,2.62,95.27,19.19,99.91,21.32.38.18,2.14,1.06,2.25,1.12M1029.14,940.16c-.09-2.56-11.75-3.26-14.02-2.81-14.58,2.96-1.2,10.5,14.02,2.81M999.4,938.47c6.26-1.8,4.84-9.6-6.74-7.85-13.54,2.03-5.2,11.3,6.74,7.85M937.09,933.43l-6.16-.56c-.06,3.8,4.16,1.94,6.16.56M935.97,940.16c.01-2.53-7.26-2.02-8.41-1.68-9.99,2.93,8.4,5.44,8.41,1.68M897.81,933.43c.73-2.99-5.42-3.48-7.3-2.81-6.86,2.49,6.13,7.59,7.3,2.81M874.8,919.4c7.65,2.99,11.13-7.2,1.12-4.49-1.64.45-3.7,3.48-1.12,4.49"/>
    <path class="cls-27" d="M1348.51,862.14c1.9,2.6,1.73,4.85,1.68,7.86,0,.17-.87-.42-.56,3.37-7.03-6.9-10.81,3.07-17.96,0-6.53,14.01-7.88,2.81-14.59,4.49-3.89.97-6.47,12.61-10.11,13.46-4.23,1.01-12.35-4.02-15.16-1.11-29.65-5.72-58.71-10.79-88.68-14.6,3.24-5.5-9.03-6.65-10.1-1.12-2.41-.29-7.72-1.98-10.11-2.25,1.43-2.64,1.63-8.49,1.12-11.23,7.12-1.48,17.69-3.9,24.69-3.37,12.61.96,12.72,8.05,14.04,7.86.52-.07,2.35-6.82,7.86-5.61,1.73.38,5,6.8,5.61,6.74.28-.02,1.92-4.28,3.37-4.49,3.03-.45,4.66,7.36,7.85,2.25,21.65,14.69,2.36,19.25,23.58-1.12,3.07-.71,4.82,1.57,5.61,1.12,16.07-9.03,13.3-15.35,14.02-16.28,11.48-14.78,19.64-3.78,32-9.53,7.36,20.73,5.22,9.58,10.09,12.34,4.5,2.56,10.42,12.55,15.72,11.23"/>
    <path class="cls-23" d="M1269.37,778.52l-20.77.56c-6.47,3.03-8.58,4.15-8.12,4.66l-3.07.07c-1.54-.3-5.74,4.55-5.07-4.73,10.63-18.24,24.63-14.78,37.04-.56"/>
    <path class="cls-23" d="M1264.88,799.85c4.44,23.46-5.38,6.1-11.79,1.68-7.85-5.43-29.43-16.22-9.54.55,6.83,41.83-7.64,3.21-14.59-11.78,3.3-7.64,8.76-1.24,8.98-5.05.05-.97-.16-1.37-.54-1.44l3.07-.07c1.23,1.37,21.05-1.67,24.41,16.11"/>
    <path class="cls-24" d="M1225.59,791.43c.53.17,1.52-.09,2.25,0-.84,3.77,1.79,16.98-6.74,38.73-3.25,8.28-13.18,21.71-13.47,23.01l-15.71-5.61c18.41-4.55,34.4-39.02,32.55-51.63-.15-1.03-1.19-2.15-2.25-2.25.76-.84.97-2.03,2-2.32.03-.01.09-.02.13-.02.46-.05.87-.02,1.24.09"/>
    <path class="cls-24" d="M1225.59,791.43c-.37-.12-.78-.15-1.24-.09.33-.07.72-.05,1.24.09"/>
    <path class="cls-1" d="M1224.47,795.92c-4.78-.68-.42,9.95-4.49,9.53-.9-6.96-2.61-6.48,2.25-11.78,1.06.09,2.1,1.22,2.25,2.25"/>
    <path class="cls-3" d="M1207.63,853.16c-.43,1.95,1.56,2.54,1.12,4.49-7-.53-17.57,1.89-24.69,3.37-2.01-10.87-5.55-1.68-6.74-2.81-.89-.84-1.96-9.14-2.25-9.54,4.41-2.7,7.2,1.27,16.84-1.12l15.71,5.61Z"/>
    <path class="cls-12" d="M1193.04,874.5c1.07-5.53,13.34-4.37,10.1,1.12-3.39-.43-6.73-.72-10.1-1.12"/>
    <g>
      <path class="cls-23" d="M1216.05,670.19c43.56-3.52,49.35,49.88,44.9,50.52-11.64-12.59-31.63-17.45-33.67-24.69-3.21,7.19-19.74-9.84-20.77-3.93-.55,3.22,32.65,13.16,11.23,57.25,27.71,8.68,15.29,20.09,14.6,29.74-.67,9.29,3.54,4.44,5.07,4.73.38.07.59.47.54,1.44-.22,3.81-5.68-2.59-8.98,5.05-.03.07-.78-.43-1.12,1.12-.73-.08-1.72.17-2.25,0-.52-.15-.91-.17-1.24-.09-.04,0-.1.01-.13.02-4.03.47-10.96,6.31-13.23,9.62-4.13,6.04-3.75,19.53-4.49-5.61,12.14-10.31-10.88-3.82-16.83,11.22-1.02-13.15,17.51-26.57,29.18-21.32-2.31-5.87-11.19-3.62-11.79-3.93-1.53-.77,2.71-2.67,1.12-3.37-7.81-3.43-26.81,2.16-15.71-6.74,12.07-9.67,25.27-6.49,32.55,6.74,2.31-10.84-11.87-32.47-11.79-19.65h-2.25c2.58-20.74-13.12-35.15-7.86-40.41-4.41,2.64-9.3-13.37-15.71-26.38-1.19-2.41-.59-5.87-2.14-7.27l.16-2.97c2.44.13,6.97-2.22,15.44-8.86-3.24,5.24,8.54-1.71,15.16-2.25M1199.77,687.59c.29-.84-9.34-5.31-10.66-5.05-.4.07-2.29,1.87-1.12,2.25l11.78,2.81Z"/>
      <path class="cls-27" d="M1261.51,655.04c-10.31,2.8-21.67,2.15-31.99,5.05-.93.25-9.51,7.99-15.72,4.49,1.43,4.72-6.35,5.44-12.91,7.85-8.47,6.63-13.01,8.98-15.44,8.86-4.24-.19-2.19-7.81-3.63-13.34-5.46-20.96-12.3-42.24-28.06-57.81.72-5.21,26.85,5.31,31.99,9.54,15.22,12.53,11.52,31.78,3.37,47.15,19.46-34.71,42.6-38.61,72.4-11.79"/>
      <path class="cls-14" d="M1189.11,682.54c1.31-.25,10.94,4.22,10.66,5.05l-11.78-2.81c-1.16-.37.72-2.17,1.12-2.25"/>
      <path class="cls-24" d="M1185.29,684.25c1.55,1.4.95,4.85,2.14,7.27-5.93,26.57-7.34,71.47-11.23,92.61-.53,2.89-14.37,52.98-15.72,56.69-3.57,9.89-10.82,18.77-13.46,29.18-7.05-.67-14.28-1.66-21.33-2.25,6.24-7.68,6.35-11.76,6.74-12.35,1.16-1.75,9.31-9.61,13.47-16.83,10.87-17.95,11.25-41.15,21.32-60.06,3.78-27.91,5.59-71.85,15.72-94.86,1.11-.1,1.84.14,2.35.59"/>
      <path class="cls-23" d="M1185.45,681.29l-.16,2.97c-.51-.46-1.24-.69-2.35-.59-4.5-1.33-21.05,26.81-26.95,21.9-1.8,9.14-19.33,19.41-26.38,34.23-4.67.21-8.43-52.61,28.62-58.94-20.51-5.76-36.66-1.58-53.87,12.35,10.23-15.34,27.97-31.81,47.71-24.14,47.7,20.22,5.2-2.08-16.84-8.97-1.4-.44,1.41-1.83,0-2.25-6.42-1.87-22.82-3.51-30.31-3.37-5.59-2.01,16.58-15.94,23.57-17.97,30.28-8.74,40.21,8.37,53.32,31.44,1.44,5.53-.6,13.15,3.63,13.34"/>
    </g>
    <path class="cls-12" d="M1184.06,861.02c.51,2.73.31,8.59-1.12,11.23-11.7-1.3-24.15-1.13-35.92-2.25,2.65-10.41,9.89-19.29,13.46-29.18,4.04-.09,12.62,5.09,14.6,7.85.29.4,1.36,8.71,2.25,9.54,1.19,1.12,4.72-8.06,6.74,2.81"/>
    <path class="cls-12" d="M1145.89,838.58c-4.16,7.22-12.31,15.08-13.47,16.83-23.73,1.46-2.04-6.09-5.61-18.52-3.81-13.25-23.88,2.31-25.25,2.81-13.56,4.87-2.15-17.2-19.09-20.21-7.85-1.39-11.6,3.89-15.72,3.37-.52-.06-6.53-5.09-8.97-5.61-13.04-2.75-31.5-8.72-33.68,8.98-2.91.71-4.54-1.49-6.17-1.12-1.39-3.66-1.3-8.91-2.25-12.35,18.21-.68,15.94-23.08,29.74-19.08,11.47-14.31,19.42-1.79,22.45-2.25,1.57-.23,6.9-11.94,29.19-7.86,23.01,4.2,20.17,21.87,21.88,25.25,1.36,2.67,11.6,4.29,10.11,20.21,1.06,2.41,11.87.96,16.84,9.54"/>
    <path class="cls-12" d="M1132.42,855.41c-.39.59-.5,4.67-6.74,12.35-33.93-2.79-68.09-5.83-102.15-6.74-6.65-18.57-22.51-32.08-5.6-35.92,1.62-.37,3.25,1.83,6.16,1.12,2.18-17.7,20.64-11.74,33.68-8.98,2.45.52,8.45,5.55,8.97,5.61,4.12.52,7.87-4.76,15.72-3.37,16.94,3.01,5.53,25.08,19.09,20.21,1.38-.5,21.44-16.06,25.25-2.81,3.57,12.42-18.11,19.98,5.61,18.52"/>
    <path class="cls-23" d="M1010.63,700.5c18.9-3.33,52.02,27.04,21.32,8.98-15.02-1.06-22.05.34-35.36,6.16,13.73,11.27,15.41,7.91,16.28,8.42,8.44,5.02,17.99,11.82,19.08,22.46-6.29-4.76-18.75-6.14-22.45-12.35-.54.39-2.09,2.3-2.24,2.25-31.09-10.83-32.91-4.1-17.4-19.65-5.63.77-9.71,6.75-12.86,14.14l-3.11-.59c.24-.48.34-.89.26-1.2-13.18-9.85-11.95-5.02-12.91-5.05-13.38-.39-13.96-.71-25.26,7.86,2.59-4.17,7.52-8.61,12.35-9.54-22.97-6.87-42.57,7.45-40.41,0,2.37-8.17,30.23-36.54,53.32-14.02-14.59-25.54-2.73-42.64,22.45-52.76-9.13,18.7-10.78,36.91-7.85,56.13,6.79-34.25,27.93-43.68,60.05-30.88-20.4,7.9-50.56,35.54-25.25,19.65"/>
    <path class="cls-24" d="M1023.53,861.02c-6.33-.17-12.74.07-19.08,0,1.14-15-2.35-30.93-4.49-46.03-6.87-48.38-16.32-61.38-19.09-75.77-1.92-10.01,10.26-6.03,13.47,0,1.8,3.38,18.65,63.88,21.33,73.52.94,3.44.86,8.69,2.25,12.35-16.91,3.83-1.05,17.35,5.6,35.92"/>
    <path class="cls-16" d="M1015.12,937.35c2.28-.46,13.94.24,14.02,2.81-15.22,7.69-28.6.15-14.02-2.81"/>
    <path class="cls-12" d="M999.96,815c2.14,15.09,5.64,31.03,4.49,46.03-25.5-.3-50.88.34-76.33,1.12v-12.35c6.21.38,8.01,1.24,8.41,1.12,2.9-.75,2.94-14.27,13.47-8.97,9.63-13.35,10.63,4.79,13.47,4.49,3.85-.42,3.72-25.23,20.2-10.11,3.66-9.74,8.77-10.21,10.67-12.91.65-.92-.59-9.59,5.61-8.42"/>
    <path class="cls-16" d="M992.66,930.63c11.58-1.75,13,6.05,6.74,7.85-11.94,3.45-20.27-5.82-6.74-7.85"/>
    <path class="cls-23" d="M973.88,730.32l3.11.59c-3.8,8.92-6.25,19.89-8.46,26.28-.4,1.13-2.99-.02-3.37,1.11-.42,1.25,1.15,10.06-5.05,25.26-14.87-24.42-4.73-33.58,6.17-44.9,1.13-1.18,6.31-5.76,7.6-8.35"/>
    <path class="cls-23" d="M974.15,729.12c.07.31-.02.72-.27,1.2-1.28,2.59-6.46,7.17-7.59,8.35,7.66-9.49-24.77,10.18-32,25.81-1.79-.42-6.67-19.03,1.68-32.55,11.3-8.57,11.88-8.25,25.26-7.86.96.03-.26-4.8,12.91,5.05"/>
    <path class="cls-16" d="M930.93,932.87l6.16.56c-2,1.38-6.23,3.24-6.16-.56"/>
    <path class="cls-16" d="M927.56,938.47c1.16-.34,8.42-.85,8.41,1.68-.01,3.76-18.4,1.25-8.41-1.68"/>
    <path class="cls-23" d="M928.12,849.79v12.35c-44.64,1.38-89.04,5.18-133.58,6.74-7.38-8.22-3.64-17.32-3.37-26.94,14.86,1.91,3.11-4.94,25.25-4.49.69,0,2.06-6.31,11.23,3.37-6.56-28,34.38-37.76,38.17-17.97,8.8-13.84,20.8-8.72,21.33,6.74,17.43-12.32,24.57,10.86,22.44,25.81,11.89-13.77,17.44-5.68,18.53-5.61"/>
    <path class="cls-16" d="M890.51,930.63c1.87-.68,8.03-.18,7.3,2.81-1.16,4.79-14.16-.32-7.3-2.81"/>
    <path class="cls-16" d="M875.92,914.91c10.01-2.71,6.53,7.48-1.12,4.49-2.57-1.01-.52-4.05,1.12-4.49"/>
    <path class="cls-23" d="M831.02,744.28c7.93-.9,19.06,9.15,17.39,11.79-9.97-1.84-19.85-.88-29.74,1.67-2.62-4.86,8.91-13.08,12.35-13.46"/>
    <path class="cls-23" d="M814.18,762.24c26.53-16.13,32.48,18.35,26.95,19.09-1.3.17-15.56-16.61-19.09-17.96l-1.68,1.68c10.9,9.03,6.25,25.53,3.93,24.14-2.72-6.96-5.41-19.27-10.67-23.58-.06-.04.43-.71-1.12-1.12-9.64-2.54-23.92,22.23-19.08,6.18,2.36-7.86,12.09-9.17-3.37-7.86,11.57-16.29,24.26-5.26,18.52-11.78-.21-.25-4.63-2.17-5.61-3.37l-47.15-1.12c25.14,10.49,21.13,29.8,16.84,29.18-2.09-.3-23.69-28.27-28.06-31.43-.09.06-.17.14-.23.21l-3-.38c1.12-.22,1.08-2.41-.7-10.5-.13-.59-2.78,1.21-3.37-10.67-1.48-29.64,27.55-30.63,28.06-27.5-10.31,9.21-12.95,22.61-17.95,34.8,3.34,5.35,7.97-19.5,34.24-15.16.54.09,8.44,3.6,10.11,4.49,28.36,15.18-11.38,5.52-16.84,15.72,10.72-5.21,15.88,7.48,16.84,7.86,5.58,2.25,33.58-7.92,22.45,19.08"/>
    <path class="cls-20" d="M812.49,764.48c1.56.41,1.06,1.08,1.12,1.12-12.83,26.83-21.6,46.46-22.45,76.34-.28,9.62-4.01,18.72,3.37,26.94-8.82,1.49-18,1.49-26.95,2.25v-2.25c21.04,2.84,10.08-7.83,12.35-29.18,1.86-17.62,21.25-60.18,32.55-75.22"/>
    <path class="cls-21" d="M779.94,839.7c-2.27,21.35,8.69,32.02-12.35,29.18v-6.74c0-46.95-12.54-68.29-22.45-111.13.07-.04-.27-1.25,1.12-1.12,11.27,29.87,25.87,58.71,33.67,89.8"/>
    <path class="cls-12" d="M767.59,868.88v2.25c-37.78,3.18-55.21,4.54-93.17,12.35-13.92-23.01.71-16.74,5.61-26.95.06-.12,2.11.39,2.25-.56-10.46-12.55,16.76-22.81,24.14-20.76,5.1,1.41,5.91,9.67,6.73,10.11,1.92,1.01,8.47-8,20.21-3.37,11.95,4.7,1.53,22.57,22.45,0,3.66,5.98,8.34,5.36,9.54,7.29,3.02,4.81-1.41,14.27,2.25,12.91v6.74Z"/>
    <path class="cls-23" d="M746.27,749.9c-1.39-.13-1.05,1.08-1.12,1.12-8.95,4.15-6.92,58.95-15.72,31.99-4.71-14.44,2.2-23.29,9.54-34.24-14.04,11.43-27.7,23.63-37.04,39.29-6.69-21.77-.5-38.32,21.88-44.9,1.71-.08,6.55.43,6.18,2.25,5.2-5.19,9.65-.94,11.37-1.29l3,.38c-1.01,1.15,1.04,3.08,1.92,5.4"/>
    <path class="cls-27" d="M740.66,733.61c1.78,8.08,1.82,10.27.7,10.5-1.72.35-6.16-3.9-11.36,1.29.37-1.81-4.47-2.33-6.18-2.25-12.83.62-25.43.94-37.6,6.74-4.39-.88,9.25-25.95,28.06-24.7,4.43.3,13.44,6.4,14.04,5.05-7.23-9.27-21.56-13.37-33.67-17.95,17.69-8.65,35.74-11.31,42.66,10.66.59,11.87,3.24,10.07,3.37,10.67"/>
    <path class="cls-27" d="M680.03,856.53c-4.9,10.21-19.53,3.94-5.61,26.95-22.19,4.55-47.2,9.5-68.47,16.83,1.46-1.96,1.06-3.41,1.12-5.61.26-10.14,12.23-14.24,12.35-25.25,3.64-4.28,8.89-9.15,15.15-6.18,7.74-17.81,34.26-21.18,45.46-6.74"/>
  </g>
  <g>
    <path class="cls-10" d="M1795.69,281.88c38.74-6.21,84.51,53.67,45.95,82.71-16.26,12.25-56.77,8.54-76.15,2.63-27.85,19.4-60.61-6.33-68.28-5.25-48.38,39.91-94.89-35.49-34.79-61.04,2.17-17.75,22.78-36.31,40.04-38.74,11.62-1.62,30.55.57,39.39,7.88,38.41-15.46,50.81,10.85,53.83,11.82"/>
    <path class="cls-10" d="M1373.34,134.17c10.25,24.41-22.61,26.8-38.73,20.34-2.09,2.94-10.93,8.78-13.13,9.19-7.58,1.4-42.78-5.11-45.3-13.78-3.85-13.27,11.94-24.06,24.28-21.67,1.35-5.81,32.05-16.81,34.15-17.07,4.6-.57,12.92.63,17.07,2.63,1.34.64,21.09,18.98,21.66,20.36"/>
    <path class="cls-10" d="M1017.14,201.94c5.24,43.68-50.77,46.96-76.8,26.92-18.4,16.25-28.36,10.46-48.58,10.51-2.38,0-29.09,8.8-42.67-12.48-19.26-30.18,12.27-45,32.16-59.74,9.57-4.81,19.43-7.64,30.19-6.57,4.15-8.46,20.23-17.3,28.89-18.37,10.21-1.28,22.83,1.31,31.51,6.55,3.77,2.28,43.65,39.34,45.3,53.17"/>
    <path class="cls-10" d="M663.04,127.61c18.62,38.52-43.36,26.86-50.55,28.22-2.39.46-18.05,18.47-44.64,1.31-43.46,1.1-36.2-41.48,3.94-38.07,14.92-15.5,26.17-8.65,43.32-15.76,25.36-1.33,28.19,12.98,47.92,24.3"/>
    <path class="cls-10" d="M343.62,233.98c52.97,34.8,22.59,79.25-22.31,65.65-14.2,7.79-28.63,12.67-44.64,6.57-22.39,21.6-50.75,8.85-76.16,0-6.65-.67-49.55,31.8-90.59-13.13-34.55,17.82-71.03-14.95-51.86-50.55,24.84-17.43,43.3-54.03,71.56-49.24,7.59-7.37,23.89-15.05,34.13-15.76,22.44-1.55,45.41,8.72,57.77,27.58,27.57-22.36,67.51-19.72,84.02,13.12,15.88.21,24.11,10.57,26.27,11.82,2.91,1.7,9.35,2.33,11.81,3.94"/>
  </g>
  <g>
    <path class="cls-15" d="M1610.42,224.35c-1.25,4.34-6.59,6.99-8.59,10.85s-1.13,9.87-3.86,13.29-8.73,3.88-12.1,6.72-4.79,8.65-8.66,10.79-9.52.24-13.75,1.6-7.7,6.17-12.12,6.67-8.84-3.42-13.31-3.8-9.42,2.75-13.76,1.5-6.99-6.59-10.85-8.59-9.87-1.13-13.29-3.86-3.88-8.73-6.72-12.1-8.65-4.79-10.79-8.66-.24-9.52-1.6-13.75-6.17-7.7-6.67-12.12,3.42-8.84,3.8-13.31-2.75-9.42-1.5-13.76,6.59-6.99,8.59-10.85,1.13-9.87,3.86-13.29,8.73-3.88,12.1-6.72,4.79-8.65,8.66-10.79,9.52-.24,13.75-1.6,7.7-6.17,12.12-6.67,8.84,3.42,13.31,3.8,9.42-2.75,13.76-1.5,6.99,6.59,10.85,8.59,9.87,1.13,13.29,3.86,3.88,8.73,6.72,12.1,8.65,4.79,10.79,8.66.24,9.52,1.6,13.75,6.17,7.7,6.67,12.12-3.42,8.84-3.8,13.31,2.75,9.42,1.5,13.76Z"/>
    <path class="cls-19" d="M1610.42,224.35c-1.25,4.34-6.59,6.99-8.59,10.85s-1.13,9.87-3.86,13.29-8.73,3.88-12.1,6.72-4.79,8.65-8.66,10.79-9.52.24-13.75,1.6-7.7,6.17-12.12,6.67-8.84-3.42-13.31-3.8-9.42,2.75-13.76,1.5-6.99-6.59-10.85-8.59-9.87-1.13-13.29-3.86-3.88-8.73-6.72-12.1-8.65-4.79-10.79-8.66-.24-9.52-1.6-13.75-6.17-7.7-6.67-12.12,3.42-8.84,3.8-13.31-2.75-9.42-1.5-13.76,6.59-6.99,8.59-10.85,1.13-9.87,3.86-13.29,8.73-3.88,12.1-6.72,4.79-8.65,8.66-10.79,9.52-.24,13.75-1.6,7.7-6.17,12.12-6.67,8.84,3.42,13.31,3.8,9.42-2.75,13.76-1.5,6.99,6.59,10.85,8.59,9.87,1.13,13.29,3.86,3.88,8.73,6.72,12.1,8.65,4.79,10.79,8.66.24,9.52,1.6,13.75,6.17,7.7,6.67,12.12-3.42,8.84-3.8,13.31,2.75,9.42,1.5,13.76Z"/>
    <path class="cls-19" d="M1608.74,205.09c0,4.22-4.38,7.96-5.16,11.95s1.78,9.23.22,13.01-7.07,5.63-9.36,9.05-1.87,9.18-4.79,12.1-8.66,2.48-12.1,4.79-5.2,7.76-9.05,9.36-8.9-1.03-13.01-.22-7.73,5.16-11.95,5.16-7.96-4.38-11.95-5.16-9.23,1.78-13.01.22-5.63-7.07-9.05-9.36-9.18-1.87-12.1-4.79-2.48-8.66-4.79-12.1-7.76-5.2-9.36-9.05,1.03-8.9.22-13.01-5.16-7.73-5.16-11.95,4.38-7.96,5.16-11.95-1.78-9.23-.22-13.01,7.07-5.63,9.36-9.05,1.87-9.18,4.79-12.1,8.66-2.48,12.1-4.79,5.2-7.76,9.05-9.36,8.9,1.03,13.01.22,7.73-5.16,11.95-5.16,7.96,4.38,11.95,5.16,9.23-1.78,13.01-.22,5.63,7.07,9.05,9.36,9.18,1.87,12.1,4.79,2.48,8.66,4.79,12.1c2.29,3.42,7.76,5.2,9.36,9.05s-1.03,8.9-.22,13.01,5.16,7.73,5.16,11.95Z"/>
    <path class="cls-26" d="M1606.13,211.06c-.39,4.05-5.07,7.2-6.19,10.95s1,9.07-.85,12.55-7.41,4.67-9.92,7.74-2.53,8.73-5.6,11.27-8.61,1.47-12.12,3.37-5.64,7.1-9.47,8.28-8.47-1.94-12.49-1.54-7.88,4.39-11.93,4.01-7.2-5.07-10.95-6.19-9.07,1-12.55-.85-4.67-7.41-7.74-9.92-8.73-2.53-11.27-5.6-1.47-8.61-3.37-12.12-7.1-5.64-8.28-9.47,1.94-8.47,1.54-12.49c-.39-3.9-4.39-7.88-4.01-11.93s5.07-7.2,6.19-10.95-1-9.07.85-12.55,7.41-4.67,9.92-7.74,2.53-8.73,5.6-11.27,8.61-1.47,12.12-3.37,5.64-7.1,9.47-8.28,8.47,1.94,12.49,1.54,7.88-4.39,11.93-4.01,7.2,5.07,10.95,6.19,9.07-1,12.55.85,4.67,7.41,7.74,9.92,8.73,2.53,11.27,5.6,1.47,8.61,3.37,12.12,7.1,5.64,8.28,9.47-1.94,8.47-1.54,12.49,4.39,7.88,4.01,11.93Z"/>
  </g>
  <g class="cls-25">
    <g>
      <path class="cls-5" d="M2049.14,949.49c-43.73,0-43.73-20-87.46-20s-43.73,20-87.46,20-43.73-20-87.46-20c-43.73,0-43.73,20-87.46,20-43.73,0-43.73-20-87.46-20-43.73,0-43.73,20-87.46,20-43.73,0-43.73-20-87.46-20-43.73,0-43.73,20-87.46,20-43.73,0-43.73-20-87.46-20s-43.73,20-87.46,20c-43.73,0-43.73-20-87.46-20-43.73,0-43.73,20-87.46,20s-43.73-20-87.46-20-43.73,20-87.46,20c-43.73,0-43.73-20-87.46-20s-43.73,20-87.46,20c-43.73,0-43.73-20-87.46-20-43.73,0-43.73,20-87.46,20-43.73,0-43.73-20-87.46-20-43.73,0-43.73,20-87.46,20-43.73,0-43.73-20-87.46-20-43.73,0-43.73,20-87.46,20-43.73,0-43.73-20-87.46-20-43.73,0-43.73,20-87.46,20-43.73,0-43.73-20-87.46-20-43.73,0-43.73,20-87.46,20s-43.73-20-87.46-20c-43.73,0-43.73,20-87.46,20-43.73,0-43.73-20-87.47-20s-43.73,20-87.47,20v248.36h2623.82v-248.36Z"/>
      <g>
        <ellipse class="cls-6" cx="1524" cy="963.91" rx="33.44" ry="14.86"/>
        <ellipse class="cls-6" cx="1873.67" cy="980.34" rx="33.44" ry="14.86" transform="translate(-86.17 186.15) rotate(-5.56)"/>
        <path class="cls-18" d="M1536.28,1007.46c-.13-2.08,1.15-3.99,3.03-4.88,10.39-4.91,50.08-22.19,72.76-11.2,26.25,12.73-36.35,22.69-36.35,22.69,0,0-38.58,7.68-39.44-6.62Z"/>
        <path class="cls-18" d="M1875.12,977.78c-9.27,11.76-22.36,20.15-37.1,22.82-11.2,2.03-24.53,2.03-49.81,2.03h-133.77s-44.59,0-66.88-11.15c-22.29-11.15,59.45-100.32,59.45-100.32,0-22.29,22.29-52.02,56.82-71.68,2.01-1.42,3.95-2.78,5.96-4.2,9.82-4.49,22.1-8.89,36.61-10.51,7.17-.8,15.17-1.06,23.89-.43,55.46,4.03,102.54,43.54,117.9,96.98,3.16,10.99,4.87,22.63,4.05,34.43-.15,2.22-1.73,9.2-3.44,15.9-2.17,8.55-6.14,16.54-11.6,23.47l-2.1,2.66Z"/>
        <ellipse class="cls-28" cx="1578.27" cy="911.96" rx="83.79" ry="80.42" transform="translate(-80.94 157.21) rotate(-5.56)"/>
        <g class="cls-13">
          <ellipse class="cls-9" cx="1573.27" cy="964.39" rx="53.09" ry="63.18" transform="translate(-86.04 156.97) rotate(-5.56)"/>
        </g>
        <line class="cls-7" x1="1552.29" y1="956.46" x2="1571.16" y2="956.46"/>
      </g>
      <path class="cls-2" d="M2125.56,1013.64c-43.73,0-43.73-20-87.46-20s-43.73,20-87.46,20-43.73-20-87.46-20c-43.73,0-43.73,20-87.46,20-43.73,0-43.73-20-87.46-20-43.73,0-43.73,20-87.46,20-43.73,0-43.73-20-87.46-20-43.73,0-43.73,20-87.46,20-43.73,0-43.73-20-87.46-20s-43.73,20-87.46,20c-43.73,0-43.73-20-87.46-20-43.73,0-43.73,20-87.46,20s-43.73-20-87.46-20-43.73,20-87.46,20c-43.73,0-43.73-20-87.46-20s-43.73,20-87.46,20c-43.73,0-43.73-20-87.46-20-43.73,0-43.73,20-87.46,20-43.73,0-43.73-20-87.46-20-43.73,0-43.73,20-87.46,20-43.73,0-43.73-20-87.46-20-43.73,0-43.73,20-87.46,20-43.73,0-43.73-20-87.46-20-43.73,0-43.73,20-87.46,20-43.73,0-43.73-20-87.46-20-43.73,0-43.73,20-87.46,20s-43.73-20-87.46-20c-43.73,0-43.73,20-87.46,20-43.73,0-43.73-20-87.47-20s-43.73,20-87.47,20v248.36h2623.82v-248.36Z"/>
    </g>
  </g>
  <g class="cls-4">
    <path class="cls-9" d="M350.2,536.75v51.32h-33.78v-155.25h53.91c19.41,0,33.98,4.21,43.68,12.61,9.71,8.41,14.56,21.06,14.56,37.95,0,15.95-5.58,28.83-16.73,38.65-11.15,9.82-26.04,14.72-44.66,14.72h-17ZM350.2,459.02v51.86h14.07c9.53,0,16.69-2.18,21.49-6.55,4.8-4.37,7.2-10.92,7.2-19.65s-2.36-15.01-7.09-19.27c-4.73-4.26-11.89-6.39-21.49-6.39h-14.18Z"/>
    <path class="cls-9" d="M530.28,590.77c-22.16,0-40.22-7.23-54.19-21.71-13.97-14.47-20.95-33.33-20.95-56.57,0-24.54,7.09-44.39,21.27-59.54s33-22.73,56.46-22.73c22.09,0,39.95,7.25,53.59,21.76,13.64,14.51,20.46,33.63,20.46,57.38s-7.07,44.15-21.22,59.06c-14.15,14.9-32.62,22.36-55.43,22.36ZM530.93,561.43c12.49,0,22.34-4.4,29.56-13.21,7.22-8.8,10.83-21.11,10.83-36.92s-3.52-29.12-10.56-38.22c-7.04-9.09-16.69-13.64-28.96-13.64s-22.45,4.67-29.88,14.02c-7.43,9.35-11.15,21.74-11.15,37.19s3.7,28.04,11.1,37.13c7.4,9.09,17.09,13.64,29.07,13.64Z"/>
    <path class="cls-9" d="M771.32,588.06h-38.43l-21-38.65c-3.39-6.28-6.79-11.01-10.18-14.18-3.39-3.18-7.29-4.94-11.69-5.3h-9.96v58.14h-33.78v-155.25h54.67c18.55,0,32.51,3.65,41.9,10.93,9.38,7.29,14.07,18.26,14.07,32.91,0,10.32-3.01,19.22-9.04,26.69-6.03,7.47-14.27,13.01-24.74,16.62v.43c4.47,1.44,8.68,4.38,12.61,8.82,3.93,4.44,7.27,9.15,10.01,14.13l25.55,44.71ZM680.05,458.37v45.79h15.81c7.65,0,13.8-2.31,18.46-6.93,4.66-4.62,6.98-10.36,6.98-17.21s-2.06-12.54-6.17-16.19c-4.11-3.64-10.32-5.47-18.62-5.47h-16.46Z"/>
    <path class="cls-9" d="M910.69,460.42h-44.39v127.64h-33.89v-127.64h-44.17v-27.61h122.44v27.61Z"/>
    <path class="cls-9" d="M1034.04,460.42h-55.1v39.19h50.67v27.5h-50.67v60.95h-33.78v-155.25h88.88v27.61Z"/>
    <path class="cls-9" d="M1138.45,590.77c-22.16,0-40.22-7.23-54.19-21.71-13.96-14.47-20.95-33.33-20.95-56.57,0-24.54,7.09-44.39,21.27-59.54s33-22.73,56.46-22.73c22.09,0,39.95,7.25,53.59,21.76,13.64,14.51,20.46,33.63,20.46,57.38s-7.07,44.15-21.22,59.06c-14.15,14.9-32.62,22.36-55.43,22.36ZM1139.1,561.43c12.49,0,22.34-4.4,29.56-13.21,7.22-8.8,10.83-21.11,10.83-36.92s-3.52-29.12-10.56-38.22c-7.04-9.09-16.69-13.64-28.96-13.64s-22.45,4.67-29.88,14.02c-7.43,9.35-11.15,21.74-11.15,37.19s3.7,28.04,11.1,37.13c7.4,9.09,17.09,13.64,29.07,13.64Z"/>
    <path class="cls-9" d="M1346.03,588.06h-91.59v-155.25h33.78v127.75h57.81v27.5Z"/>
    <path class="cls-9" d="M1414.17,588.06h-33.78v-155.25h33.78v155.25Z"/>
    <path class="cls-9" d="M1528.43,590.77c-22.16,0-40.22-7.23-54.19-21.71-13.96-14.47-20.95-33.33-20.95-56.57,0-24.54,7.09-44.39,21.27-59.54s33-22.73,56.46-22.73c22.09,0,39.95,7.25,53.59,21.76,13.64,14.51,20.46,33.63,20.46,57.38s-7.07,44.15-21.22,59.06c-14.15,14.9-32.62,22.36-55.43,22.36ZM1529.08,561.43c12.49,0,22.34-4.4,29.56-13.21,7.22-8.8,10.83-21.11,10.83-36.92s-3.52-29.12-10.56-38.22c-7.04-9.09-16.69-13.64-28.96-13.64s-22.45,4.67-29.88,14.02c-7.43,9.35-11.15,21.74-11.15,37.19s3.7,28.04,11.1,37.13c7.4,9.09,17.09,13.64,29.07,13.64Z"/>
  </g>
</svg>